<?xml version="1.0" encoding="utf-8"?>
<!-- Generator: Adobe Illustrator 16.0.4, SVG Export Plug-In . SVG Version: 6.00 Build 0)  -->
<!DOCTYPE svg PUBLIC "-//W3C//DTD SVG 1.1//EN" "http://www.w3.org/Graphics/SVG/1.1/DTD/svg11.dtd">
<svg version="1.1" id="Ebene_1" xmlns="http://www.w3.org/2000/svg" xmlns:xlink="http://www.w3.org/1999/xlink" x="0px" y="0px"
	 width="328.833px" height="339.5px" viewBox="0 0 328.833 339.5" enable-background="new 0 0 328.833 339.5" xml:space="preserve">
<rect y="4.25" fill="#48A3A6" width="328.833" height="328.832"/>
<path fill="#F0E9E6" d="M125.153,92.002c-4.358,0.097-6.393,3.128-6.078,6.793c0.413,4.817,3.455,5.941,4.841,8.687
	c3.095,6.122,1.173,9.252-0.7,12.449c-11.907,20.328,0.333,44-23.671,60.668c-1.776,1.231-8.376,4.514-19.545-12.632
	c20.875,33.106,18.082,65.312,31.848,69.729c13.768,4.417,52.209,4.675,75.066-15.328c22.855-20.003,28.506-12.516,64.157-72.479
	c6.483-10.906,10.726-21.538,11.483-42.054c-4.307,29.382-55.979,77.762-80.578,77.384c-23.478-0.358-17.485-36.501-36.271-53.944
	c-17.958-16.675-14.04-20.271-12.76-31.779C133.332,96.039,130.183,91.891,125.153,92.002"/>
<g>
	<path fill="#FFFFFF" d="M120.526,68c1.947,0,3.526,1.856,3.526,4.147s-1.579,4.148-3.526,4.148c-1.947,0-3.526-1.857-3.526-4.148
		S118.579,68,120.526,68"/>
	<path fill="#FFFFFF" d="M29.148,76C26.857,76,25,77.764,25,79.94c0,2.176,1.857,3.94,4.148,3.94s4.15-1.764,4.15-3.94
		C33.298,77.764,31.439,76,29.148,76"/>
	<path fill="#FFFFFF" d="M23.282,68C22.022,68,21,69.021,21,70.281c0,1.26,1.022,2.281,2.282,2.281c1.26,0,2.282-1.021,2.282-2.281
		C25.564,69.021,24.542,68,23.282,68"/>
	<path fill="#FFFFFF" d="M296.917,52.087c-14.615-1.574-14.838,18.697-14.838,18.697c-2.504,1.087-11.484,2.595-16.56,12.03
		c-8.129,15.118-2.685,29.179-10.879,48.416c-7.759,18.215-16.711,28.256-16.711,28.256s-8.687-5.649-2.44-27.413
		c3.614-12.596,11.41-13.366,15.149-24.315c1.885-5.519-3.146-9.03-3.146-9.03s3.031-0.757,4.115-4.69
		c1.436-5.214-2.507-6.915-2.507-6.915s2.444-2.824,5.087-5.894c4.534-5.273,9.646-12.334,3.939-14.736
		c-6.658-2.803-7.362,6.206-8.369,13.104c-0.561,3.852-1.479,5.987-2.105,7.07c0,0-3.541-0.486-5.217,2.368
		c-2.822,4.808,0.223,8.081,0.223,8.081s-4.295-1.234-6.881,4.108c-3.293,6.81,1.854,10.409-6.345,29.148
		c-11.991,27.416-45.771,21.725-57.7,52.167c-5.995,15.293-10.791,27.373-17.221,31.729c-6.432,4.354-15.409,1.771-21.633,4.674
		c-6.222,2.902-11.804,16.793-20.744,11.298c-6.646-4.089-1.105-22.388-11.256-42.312c-9-17.665-18.667-18.332-27.987-37.238
		c-6.472-13.127-9.53-25.603-11.734-31.652C53.074,96.845,45.477,98.4,42.784,99.05c-3.288,0.794,0.107-14.461-8.57-9.123
		c-7.624,4.693,7.016,8.9,5.414,10.277c-11.565,9.948,9.698,11.855,19.444,34.514c2.616,6.084,5.656,13.121,7.212,20.597
		c5.539,26.623,20.038,37.371,25.846,60.944c3.312,13.443,2.177,24.75,0.722,27.623c-0.423,0.836-0.505,1.634-0.294,2.392h144.386
		c0.369-0.696,0.362-1.418-0.09-2.164c-1.062-1.752-5.979-11.653-4.837-30.945c1.259-21.234,13.601-46.858,24.673-70.735
		c13.811-29.786,10.823-49.357,32.873-65.061c5.389-3.839,2.191-8.469-3.322-6.894C289.391,63.12,307.612,53.238,296.917,52.087"/>
	<path fill="#FFFFFF" d="M103.237,265.998c4.08,1.2,8.719,2.759,8.719,8.839c0,5.56-4.199,8.519-11.158,8.519
		c-5.239,0-8.559-1.601-8.559-1.601l1.2-4.358c0,0,3.24,1.399,7.239,1.399c3.559,0,5.639-1.2,5.639-3.56
		c0-2.799-2.959-3.562-6.199-4.479c-3.959-1.119-8.118-3.039-8.118-8.479C92,256.2,96.758,254,102.757,254
		c4.88,0,8.199,1.52,8.199,1.52l-1.2,4.16c0,0-2.719-1.119-6.559-1.119c-3.759,0-5.718,1.158-5.718,3.358
		C97.479,264.398,100.078,265.078,103.237,265.998"/>
	<path fill="#FFFFFF" d="M121.639,258.839v10.238c0.52,0.04,1.76,0.08,4.039,0.08c4.04,0,5.999-2.199,5.999-5.359
		c0-3.319-2.039-5.237-5.759-5.237C124.398,258.561,122.919,258.679,121.639,258.839z M121.639,273.637v9.238H116V254.92
		c0.52-0.2,4.919-0.92,9.718-0.92c7.959,0,11.558,3.439,11.558,9.839c0,5.72-3.639,9.918-10.958,9.918
		C124.359,273.757,122.759,273.716,121.639,273.637z"/>
	<path fill="#FFFFFF" d="M147.639,254v19.557c0,3.48,2,4.719,6.199,4.719c2.919,0,5.239-0.64,5.239-0.64v4.56
		c0,0-2.36,0.682-6.279,0.682c-8.238,0-10.798-3.357-10.798-9.316V254H147.639z"/>
	<path fill="#FFFFFF" d="M171.238,270.598h7.279l-3.64-12.559L171.238,270.598z M162,282.395L171.038,254h7.68l9.039,28.395h-5.84
		l-2.119-7.316h-9.838l-2.08,7.316H162z"/>
	<path fill="#FFFFFF" d="M201.239,265.998c4.079,1.2,8.719,2.759,8.719,8.839c0,5.56-4.199,8.519-11.158,8.519
		c-5.237,0-8.559-1.601-8.559-1.601l1.198-4.358c0,0,3.24,1.399,7.24,1.399c3.56,0,5.639-1.2,5.639-3.56
		c0-2.799-2.959-3.562-6.198-4.479c-3.959-1.119-8.119-3.039-8.119-8.479c0-6.075,4.76-8.275,10.758-8.275
		c4.882,0,8.199,1.521,8.199,1.521l-1.199,4.157c0,0-2.721-1.116-6.559-1.116c-3.761,0-5.72,1.156-5.72,3.356
		C195.48,264.398,198.081,265.078,201.239,265.998"/>
	<path fill="#FFFFFF" d="M237.596,254v28.395h-5.639v-12.078h-11.318v12.078H215V254h5.639v11.559h11.318V254H237.596z"/>
	<path fill="#FFFFFF" d="M99.315,305.938h6.551l-3.275-11.303L99.315,305.938z M91,316.557L99.135,291h6.911l8.135,25.557h-5.255
		l-1.908-6.588h-8.855l-1.872,6.588H91z"/>
	<path fill="#FFFFFF" d="M118.328,291l3.959,17.458l0.504,3.455l0.54-3.455l3.852-16.163h5.183l3.815,16.163l0.504,3.347
		l0.576-3.384l3.96-17.421h5.327l-6.155,25.557h-6.264l-3.959-14.9l-0.432-2.196l-0.36,2.196l-3.96,14.9h-6.263L113,291H118.328z"/>
	<path fill="#FFFFFF" d="M154.315,305.938h6.552l-3.276-11.303L154.315,305.938z M146,316.557L154.136,291h6.911l8.135,25.557
		h-5.256l-1.908-6.588h-8.855l-1.871,6.588H146z"/>
	<path fill="#FFFFFF" d="M181.674,294.104c-1.223,0-2.482,0.108-3.598,0.219v7.883c0.539,0.036,1.941,0.07,3.168,0.07
		c4.104,0,5.9-0.937,5.9-4.03C187.146,294.932,185.129,294.104,181.674,294.104z M173,290.828c1.689-0.324,5.109-0.828,8.496-0.828
		c7.27,0,10.727,2.34,10.727,8.062c0,4.066-1.766,6.336-5.184,7.344l2.268,4.283c0.826,1.619,1.439,2.521,2.844,2.521
		c0.469,0,0.791-0.108,0.791-0.108v3.707c0,0-0.756,0.469-2.303,0.469c-3.133,0-4.535-1.906-5.867-4.533l-2.881-5.651h-0.684
		c-0.938,0-2.125-0.034-3.131-0.071v9.971H173V290.828z"/>
	<path fill="#FFFFFF" d="M202.075,294.284v17.89c1.008,0.107,2.159,0.143,3.276,0.143c4.534,0,7.127-2.408,7.127-9.178
		c0-6.189-2.125-9.035-7.164-9.035C204.234,294.104,203.083,294.176,202.075,294.284z M197,290.828c0,0,4.064-0.828,8.17-0.828
		c9.896,0,12.42,5.473,12.42,13.139c0,7.775-2.809,13.282-12.49,13.282c-4.393,0-8.1-0.862-8.1-0.862V290.828z"/>
	<path fill="#FFFFFF" d="M231.116,300.799c3.67,1.08,7.846,2.484,7.846,7.955c0,5.004-3.778,7.667-10.043,7.667
		c-4.715,0-7.703-1.44-7.703-1.44l1.08-3.922c0,0,2.916,1.258,6.517,1.258c3.203,0,5.073-1.076,5.073-3.2
		c0-2.521-2.661-3.204-5.577-4.031c-3.562-1.008-7.308-2.733-7.308-7.632c0-5.473,4.283-7.451,9.683-7.451
		c4.394,0,7.379,1.368,7.379,1.368l-1.078,3.743c0,0-2.446-1.01-5.903-1.01c-3.384,0-5.146,1.045-5.146,3.024
		C225.932,299.359,228.271,299.973,231.116,300.799"/>
	<path fill="#FFFFFF" d="M124.139,92.511c0,0,4.523-1.507,3.638-5.903c-1.218-6.046-5.795-4.821-7.043-3.629
		c-1.93,1.842-2.07,4.496-1.29,6.536C120.246,91.615,124.139,92.511,124.139,92.511"/>
	<path fill="#FFFFFF" d="M292,54.85c13.223-8.268,27.047-46.161,7.156-40.221C289.732,17.442,306.362,33.409,292,54.85"/>
</g>
<path fill="#FF0000" d="M183.236,195.432h37.068V232.5h-37.068V195.432z"/>
<path fill="#FFFFFF" d="M190.186,210.491h23.169v6.948h-23.169V210.491z"/>
<path fill="#FFFFFF" d="M198.295,202.381h6.949v23.169h-6.949V202.381z"/>
</svg>
