<?xml version="1.0" encoding="UTF-8"?>
<svg width="330px" height="330px" viewBox="0 0 330 330" version="1.1" xmlns="http://www.w3.org/2000/svg" xmlns:xlink="http://www.w3.org/1999/xlink">
    <!-- Generator: Sketch 41.2 (35397) - http://www.bohemiancoding.com/sketch -->
    <title>1024</title>
    <desc>Created with Sketch.</desc>
    <defs>
        <polygon id="path-1" points="309.268128 92.3747688 309.268128 14 119 14 119 92.3747688"></polygon>
    </defs>
    <g id="Page-1" stroke="none" stroke-width="1" fill="none" fill-rule="evenodd">
        <g id="1024">
            <path d="M125.153,92.0021808 C120.795,92.0991808 118.76,95.1301808 119.075,98.7951808 C119.488,103.612181 122.53,104.736181 123.916,107.481181 C127.011,113.603181 125.089,116.733181 123.216,119.930181 C111.309,140.258181 123.549,163.930181 99.545,180.599181 C97.769,181.832181 91.169,185.112181 80,167.969181 C100.875,201.075181 98.082,233.279181 111.848,237.696181 C125.616,242.113181 164.057,242.371181 186.914,222.368181 C209.772,202.365181 215.42,209.853181 251.073,149.889181 C257.557,138.983181 261.797,128.351181 262.557,107.835181 C258.251,137.217181 206.579,185.596181 181.979,185.219181 C158.501,184.860181 164.493,148.717181 145.708,131.274181 C127.75,114.599181 131.668,111.004181 132.948,99.4951808 C133.332,96.0391808 130.183,91.8911808 125.153,92.0021808" id="Fill-1" fill="#F0E9E6"></path>
            <path d="M120.526,68 C122.473,68 124.052,69.856 124.052,72.147 C124.052,74.438 122.473,76.295 120.526,76.295 C118.579,76.295 117,74.438 117,72.147 C117,69.856 118.579,68 120.526,68" id="Fill-2" fill="#FFFFFF"></path>
            <path d="M29.148,76 C26.857,76 25,77.764 25,79.94 C25,82.116 26.857,83.88 29.148,83.88 C31.439,83.88 33.298,82.116 33.298,79.94 C33.298,77.764 31.439,76 29.148,76" id="Fill-3" fill="#FFFFFF"></path>
            <path d="M23.282,68 C22.022,68 21,69.021 21,70.281 C21,71.541 22.022,72.562 23.282,72.562 C24.542,72.562 25.564,71.541 25.564,70.281 C25.564,69.021 24.542,68 23.282,68" id="Fill-4" fill="#FFFFFF"></path>
            <path d="M296.916241,52.0871383 C282.300241,50.5131383 282.078241,70.7841383 282.078241,70.7841383 C279.575241,71.8711383 270.593241,73.3791383 265.520241,82.8141383 C257.391241,97.9321383 262.835241,111.993138 254.641241,131.230138 C246.883241,149.445138 237.930241,159.486138 237.930241,159.486138 C237.930241,159.486138 229.243241,153.837138 235.489241,132.073138 C239.104241,119.477138 246.899241,118.707138 250.638241,107.758138 C252.523241,102.239138 247.494241,98.7281383 247.494241,98.7281383 C247.494241,98.7281383 250.526241,97.9711383 251.610241,94.0381383 C253.045241,88.8241383 249.104241,87.1231383 249.104241,87.1231383 C249.104241,87.1231383 251.549241,84.2991383 254.190241,81.2291383 C258.725241,75.9561383 263.836241,68.8951383 258.131241,66.4931383 C251.473241,63.6901383 250.768241,72.6991383 249.762241,79.5971383 C249.201241,83.4491383 248.284241,85.5841383 247.655241,86.6671383 C247.655241,86.6671383 244.114241,86.1811383 242.438241,89.0351383 C239.616241,93.8431383 242.659241,97.1161383 242.659241,97.1161383 C242.659241,97.1161383 238.366241,95.8821383 235.780241,101.224138 C232.487241,108.034138 237.633241,111.633138 229.436241,130.372138 C217.444241,157.788138 183.667241,152.097138 171.735241,182.539138 C165.740241,197.832138 160.944241,209.912138 154.514241,214.268138 C148.082241,218.622138 139.105241,216.037138 132.881241,218.941138 C126.659241,221.844138 121.077241,235.734138 112.137241,230.237138 C105.491241,226.150138 111.032241,207.852138 100.881241,187.926138 C91.8812406,170.260138 82.2142406,169.593138 72.8942406,150.688138 C66.4222406,137.561138 63.3642406,125.085138 61.1602406,119.036138 C53.0742406,96.8451383 45.4772406,98.4001383 42.7842406,99.0501383 C39.4962406,99.8441383 42.8912406,84.5891383 34.2142406,89.9271383 C26.5902406,94.6201383 41.2302406,98.8271383 39.6282406,100.204138 C28.0632406,110.152138 49.3262406,112.059138 59.0722406,134.718138 C61.6882406,140.802138 64.7282406,147.839138 66.2842406,155.315138 C71.8232406,181.938138 86.3222406,192.686138 92.1302406,216.259138 C95.4422406,229.703138 94.3072406,241.010138 92.8522406,243.883138 C92.4292406,244.719138 92.3472406,245.515138 92.5582406,246.274138 L236.944241,246.274138 C237.313241,245.576138 237.307241,244.855138 236.854241,244.109138 C235.791241,242.357138 230.877241,232.455138 232.018241,213.163138 C233.276241,191.928138 245.618241,166.305138 256.690241,142.428138 C270.500241,112.642138 267.514241,93.0711383 289.563241,77.3671383 C294.951241,73.5281383 291.755241,68.8981383 286.240241,70.4731383 C289.391241,63.1201383 307.612241,53.2381383 296.916241,52.0871383" id="Fill-5" fill="#FFFFFF"></path>
            <path d="M103.237,265.998 C107.317,267.198 111.956,268.757 111.956,274.837 C111.956,280.396 107.757,283.355 100.798,283.355 C95.559,283.355 92.239,281.755 92.239,281.755 L93.439,277.396 C93.439,277.396 96.679,278.796 100.678,278.796 C104.237,278.796 106.317,277.596 106.317,275.236 C106.317,272.437 103.358,271.677 100.118,270.757 C96.159,269.638 92,267.718 92,262.278 C92,256.2 96.758,254 102.757,254 C107.637,254 110.956,255.52 110.956,255.52 L109.756,259.679 C109.756,259.679 107.037,258.56 103.197,258.56 C99.438,258.56 97.479,259.719 97.479,261.919 C97.479,264.398 100.078,265.078 103.237,265.998" id="Fill-6" fill="#FFFFFF"></path>
            <path d="M121.639,258.839 L121.639,269.077 C122.159,269.117 123.399,269.157 125.678,269.157 C129.718,269.157 131.677,266.958 131.677,263.798 C131.677,260.479 129.638,258.56 125.918,258.56 C124.398,258.56 122.919,258.679 121.639,258.839 Z M121.639,273.637 L121.639,282.875 L116,282.875 L116,254.92 C116.52,254.72 120.919,254 125.718,254 C133.677,254 137.276,257.44 137.276,263.839 C137.276,269.558 133.637,273.757 126.318,273.757 C124.359,273.757 122.759,273.716 121.639,273.637 L121.639,273.637 Z" id="Fill-7" fill="#FFFFFF"></path>
            <path d="M147.639,254 L147.639,273.556 C147.639,277.037 149.639,278.276 153.838,278.276 C156.757,278.276 159.077,277.636 159.077,277.636 L159.077,282.195 C159.077,282.195 156.717,282.875 152.798,282.875 C144.56,282.875 142,279.515 142,273.556 L142,254 L147.639,254" id="Fill-8" fill="#FFFFFF"></path>
            <path d="M171.238,270.597 L178.517,270.597 L174.878,258.039 L171.238,270.597 Z M162,282.395 L171.038,254 L178.717,254 L187.756,282.395 L181.917,282.395 L179.798,275.076 L169.959,275.076 L167.879,282.395 L162,282.395 L162,282.395 Z" id="Fill-9" fill="#FFFFFF"></path>
            <path d="M201.239,265.998 C205.319,267.198 209.957,268.757 209.957,274.837 C209.957,280.396 205.758,283.355 198.799,283.355 C193.56,283.355 190.241,281.755 190.241,281.755 L191.44,277.396 C191.44,277.396 194.68,278.796 198.679,278.796 C202.239,278.796 204.319,277.596 204.319,275.236 C204.319,272.437 201.359,271.677 198.12,270.757 C194.161,269.638 190,267.718 190,262.278 C190,256.2 194.76,254 200.758,254 C205.638,254 208.957,255.52 208.957,255.52 L207.758,259.679 C207.758,259.679 205.038,258.56 201.199,258.56 C197.44,258.56 195.48,259.719 195.48,261.919 C195.48,264.398 198.08,265.078 201.239,265.998" id="Fill-10" fill="#FFFFFF"></path>
            <polyline id="Fill-11" fill="#FFFFFF" points="237.596 254 237.596 282.395 231.957 282.395 231.957 270.317 220.639 270.317 220.639 282.395 215 282.395 215 254 220.639 254 220.639 265.558 231.957 265.558 231.957 254 237.596 254"></polyline>
            <path d="M99.315,305.937 L105.866,305.937 L102.591,294.635 L99.315,305.937 Z M91,316.556 L99.135,291 L106.046,291 L114.181,316.556 L108.926,316.556 L107.018,309.969 L98.163,309.969 L96.291,316.556 L91,316.556 L91,316.556 Z" id="Fill-12" fill="#FFFFFF"></path>
            <polyline id="Fill-13" fill="#FFFFFF" points="118.328 291 122.287 308.458 122.791 311.913 123.331 308.458 127.183 292.295 132.366 292.295 136.181 308.458 136.685 311.805 137.261 308.421 141.221 291 146.548 291 140.393 316.556 134.129 316.556 130.17 301.654 129.738 299.458 129.378 301.654 125.418 316.556 119.155 316.556 113 291 118.328 291"></polyline>
            <path d="M154.315,305.937 L160.867,305.937 L157.591,294.635 L154.315,305.937 Z M146,316.556 L154.136,291 L161.047,291 L169.181,316.556 L163.926,316.556 L162.018,309.969 L153.163,309.969 L151.292,316.556 L146,316.556 L146,316.556 Z" id="Fill-14" fill="#FFFFFF"></path>
            <path d="M181.675,294.103 C180.451,294.103 179.191,294.212 178.076,294.32 L178.076,302.203 C178.616,302.239 180.019,302.275 181.244,302.275 C185.347,302.275 187.146,301.339 187.146,298.243 C187.146,294.932 185.13,294.103 181.675,294.103 Z M173,290.828 C174.692,290.504 178.112,290 181.496,290 C188.766,290 192.222,292.34 192.222,298.063 C192.222,302.131 190.458,304.398 187.039,305.406 L189.306,309.69 C190.134,311.309 190.746,312.21 192.15,312.21 C192.618,312.21 192.942,312.101 192.942,312.101 L192.942,315.809 C192.942,315.809 192.186,316.277 190.638,316.277 C187.506,316.277 186.103,314.369 184.771,311.742 L181.891,306.091 L181.207,306.091 C180.271,306.091 179.083,306.055 178.076,306.018 L178.076,315.989 L173,315.989 L173,290.828 L173,290.828 Z" id="Fill-15" fill="#FFFFFF"></path>
            <path d="M202.075,294.284 L202.075,312.174 C203.083,312.281 204.234,312.317 205.351,312.317 C209.887,312.317 212.478,309.906 212.478,303.139 C212.478,296.947 210.353,294.103 205.314,294.103 C204.234,294.103 203.083,294.176 202.075,294.284 Z M197,290.828 C197,290.828 201.067,290 205.171,290 C215.069,290 217.59,295.472 217.59,303.139 C217.59,310.914 214.781,316.421 205.099,316.421 C200.707,316.421 197,315.558 197,315.558 L197,290.828 L197,290.828 Z" id="Fill-16" fill="#FFFFFF"></path>
            <path d="M231.115,300.799 C234.786,301.879 238.961,303.283 238.961,308.754 C238.961,313.758 235.181,316.421 228.919,316.421 C224.203,316.421 221.216,314.981 221.216,314.981 L222.296,311.058 C222.296,311.058 225.211,312.317 228.81,312.317 C232.014,312.317 233.886,311.238 233.886,309.114 C233.886,306.595 231.222,305.91 228.306,305.083 C224.744,304.075 221,302.347 221,297.451 C221,291.98 225.283,290 230.682,290 C235.074,290 238.061,291.368 238.061,291.368 L236.982,295.111 C236.982,295.111 234.534,294.103 231.078,294.103 C227.695,294.103 225.931,295.148 225.931,297.128 C225.931,299.359 228.271,299.972 231.115,300.799" id="Fill-17" fill="#FFFFFF"></path>
            <mask id="mask-2" fill="white">
                <use xlink:href="#path-1"></use>
            </mask>
            <g id="Clip-19"></g>
            <path d="M124.139128,92.5114223 C124.139128,92.5114223 128.662128,91.0044223 127.777128,86.6084223 C126.559128,80.5624223 121.982128,81.7874223 120.734128,82.9794223 C118.804128,84.8214223 118.664128,87.4754223 119.444128,89.5154223 C120.246128,91.6154223 124.139128,92.5114223 124.139128,92.5114223" id="Fill-18" fill="#FFFFFF" mask="url(#mask-2)"></path>
            <path d="M292,54.8497688 C305.224,46.5817688 319.047,8.68876876 299.156,14.6287688 C289.733,17.4417688 306.362,33.4087688 292,54.8497688" id="Fill-20" fill="#FFFFFF" mask="url(#mask-2)"></path>
        </g>
    </g>
</svg>