<?xml version="1.0" standalone="no"?>
<!DOCTYPE svg PUBLIC "-//W3C//DTD SVG 20010904//EN"
 "http://www.w3.org/TR/2001/REC-SVG-20010904/DTD/svg10.dtd">
<svg version="1.0" xmlns="http://www.w3.org/2000/svg"
 width="680.000000pt" height="680.000000pt" viewBox="0 0 680.000000 680.000000"
 preserveAspectRatio="xMidYMid meet">
<metadata>
Created by potrace 1.11, written by Peter Selinger 2001-2013
</metadata>
<g transform="translate(0.000000,680.000000) scale(0.100000,-0.100000)"
fill="#000000" stroke="none">
<path d="M110 3420 l0 -3290 3295 0 3295 0 0 3290 0 3290 -3295 0 -3295 0 0
-3290z m6147 3083 c30 -20 53 -83 53 -146 0 -131 -101 -387 -209 -527 l-49
-65 27 -6 c41 -9 51 -18 51 -45 0 -19 -35 -61 -137 -167 -124 -128 -136 -142
-113 -145 47 -6 80 -24 86 -48 11 -45 -5 -73 -76 -129 -175 -140 -278 -285
-352 -495 -10 -30 -53 -159 -94 -286 -89 -278 -127 -376 -272 -689 -341 -742
-434 -1079 -402 -1460 13 -149 30 -231 70 -331 17 -43 29 -83 26 -91 -4 -11
-261 -13 -1456 -13 -1423 0 -1450 0 -1450 19 0 11 7 48 16 83 13 50 15 93 11
213 -11 293 -72 475 -294 873 -148 267 -206 409 -259 631 -45 193 -144 441
-226 567 -35 54 -102 129 -209 234 -100 99 -160 165 -164 183 -9 33 8 77 40
107 29 27 26 33 -28 67 -104 64 -123 112 -65 157 78 59 127 35 147 -70 19 -95
21 -97 77 -98 147 -3 248 -151 387 -566 88 -265 121 -348 183 -472 70 -140
130 -221 269 -369 70 -74 148 -160 173 -192 25 -31 48 -57 52 -57 5 0 39 24
76 53 126 97 209 227 252 392 11 44 32 176 47 293 30 245 54 338 125 483 47
94 51 109 47 155 -6 57 -30 107 -82 172 -57 71 -59 156 -6 210 l29 28 -28 16
c-50 29 -52 129 -3 168 33 25 83 26 110 0 44 -41 52 -122 17 -162 -14 -15 -12
-17 16 -23 42 -9 97 -67 105 -109 4 -18 2 -68 -5 -110 -34 -224 -8 -286 216
-516 189 -196 220 -250 340 -603 41 -122 91 -253 110 -292 34 -67 98 -155 112
-155 4 0 23 30 42 67 62 120 165 231 300 323 32 22 141 83 242 136 231 122
329 186 411 266 78 77 124 148 173 264 54 131 84 261 84 363 0 115 21 184 70
233 24 25 47 38 64 38 23 0 25 2 16 26 -30 78 15 167 92 183 40 8 50 33 74
183 28 176 57 228 127 228 46 0 97 -43 97 -83 0 -42 -58 -139 -143 -241 l-84
-99 24 -25 c41 -44 24 -159 -29 -196 -19 -14 -19 -15 9 -57 50 -76 27 -181
-65 -292 -105 -127 -150 -186 -170 -220 -28 -49 -68 -183 -83 -279 -12 -78 -9
-222 6 -236 16 -16 244 252 347 409 104 158 119 190 138 307 10 59 21 148 25
197 32 420 129 600 375 697 l64 26 13 78 c15 90 57 186 99 228 16 16 52 40 80
53 45 20 54 30 77 81 59 131 69 275 32 465 -18 92 -19 151 -5 177 29 53 147
72 207 33z m-5643 -1079 c21 -20 20 -37 -3 -65 -16 -20 -23 -22 -46 -14 -36
13 -48 46 -29 74 18 25 56 27 78 5z m1965 -10 c45 -57 12 -144 -54 -144 -24 0
-39 7 -54 26 -45 57 -12 144 54 144 24 0 39 -7 54 -26z m-1824 -159 c54 -53
17 -137 -60 -137 -51 0 -85 33 -85 83 0 72 93 107 145 54z m1548 -3555 c34
-10 37 -13 31 -38 -17 -68 -20 -72 -56 -61 -54 16 -155 13 -183 -5 -29 -19
-33 -56 -7 -78 9 -9 53 -27 97 -42 137 -45 186 -106 171 -211 -10 -61 -63
-117 -129 -133 -80 -21 -228 -10 -263 19 -19 16 8 95 32 91 11 -1 45 -7 76
-12 63 -11 135 -1 149 22 5 7 9 25 9 40 0 34 -22 49 -117 81 -121 41 -163 86
-163 176 0 78 40 130 120 156 50 16 169 14 233 -5z m424 5 c98 -29 136 -80
137 -185 1 -134 -74 -201 -231 -208 l-83 -4 0 -89 0 -89 -60 0 -60 0 0 284 0
285 48 6 c26 4 52 8 57 10 28 9 147 3 192 -10z m343 -172 c0 -104 3 -205 7
-226 9 -57 39 -72 140 -71 l83 2 0 -49 c0 -47 -1 -48 -35 -55 -65 -12 -187 0
-230 22 -75 39 -80 57 -83 327 l-3 237 60 0 61 0 0 -187z m713 -86 c47 -151
89 -281 93 -290 5 -15 -3 -17 -60 -17 l-65 0 -21 70 -21 70 -95 0 c-67 0 -96
-4 -99 -12 -2 -7 -11 -39 -20 -70 l-16 -58 -66 0 c-48 0 -64 3 -61 13 3 6 31
93 62 192 32 99 71 224 89 278 l31 97 81 0 81 0 87 -273z m450 259 c32 -7 61
-16 64 -20 3 -3 1 -24 -6 -47 l-12 -41 -52 7 c-109 15 -180 3 -192 -34 -10
-34 12 -58 72 -80 32 -12 76 -28 99 -36 54 -20 102 -69 110 -112 17 -90 -15
-161 -90 -200 -46 -24 -181 -29 -249 -9 -61 18 -63 21 -46 79 8 30 14 37 27
32 9 -4 46 -11 82 -17 85 -12 140 4 155 46 8 25 6 31 -17 51 -15 13 -63 35
-107 50 -123 41 -172 107 -156 208 18 108 156 161 318 123z m305 -103 l3 -113
104 0 104 0 3 113 3 112 60 0 60 0 3 -287 2 -288 -65 0 -65 0 0 120 0 120
-105 0 -105 0 0 -120 0 -120 -65 0 -65 0 0 283 c0 156 3 287 7 291 4 4 32 6
63 4 l55 -3 3 -112z m-653 -632 c77 -34 106 -130 66 -218 -12 -26 -32 -48 -51
-58 -17 -9 -30 -19 -28 -23 34 -73 62 -113 84 -118 22 -6 25 -11 22 -48 -3
-40 -4 -41 -45 -44 -55 -4 -97 33 -142 127 -33 67 -37 71 -68 71 l-33 0 0 -95
c0 -91 -1 -95 -24 -101 -13 -3 -38 -4 -57 -2 l-34 3 -3 257 -2 257 42 5 c24 3
54 8 68 10 51 9 160 -3 205 -23z m462 4 c91 -38 127 -107 127 -245 0 -74 -5
-105 -21 -140 -25 -57 -80 -106 -135 -121 -46 -12 -234 -9 -255 4 -10 6 -13
69 -13 257 l0 249 33 5 c17 3 43 8 57 10 45 8 169 -3 207 -19z m473 12 c60
-13 70 -29 51 -80 -9 -24 -13 -26 -36 -17 -15 6 -55 10 -91 10 -51 0 -68 -4
-84 -20 -11 -11 -20 -24 -20 -29 0 -21 39 -50 90 -66 130 -41 170 -81 170
-170 0 -103 -66 -154 -198 -155 -40 0 -94 5 -118 11 -46 12 -46 12 -39 48 4
20 10 40 15 44 4 5 35 3 69 -4 98 -19 161 -1 161 47 0 34 -22 50 -102 76 -130
41 -180 117 -143 213 33 89 132 122 275 92z m-2561 -69 c74 -231 141 -446 141
-456 0 -8 -19 -12 -55 -12 l-54 0 -22 70 -21 70 -83 0 -82 0 -19 -67 -20 -68
-57 -3 c-31 -2 -57 1 -57 6 0 14 151 484 161 505 8 14 23 17 79 17 l68 0 21
-62z m225 54 c3 -5 21 -80 41 -168 34 -152 53 -217 54 -184 0 8 17 86 37 173
l38 157 57 0 57 0 37 -157 c20 -87 38 -162 40 -168 5 -17 13 13 53 185 l37
165 58 3 c38 2 57 -1 57 -9 0 -6 -11 -57 -24 -113 -14 -55 -39 -159 -56 -231
-43 -184 -38 -175 -109 -175 -33 0 -63 5 -67 11 -3 6 -23 74 -44 152 -21 78
-40 135 -44 127 -3 -8 -19 -67 -36 -130 -45 -170 -39 -162 -113 -158 l-62 3
-62 250 c-34 138 -62 256 -63 263 0 14 105 18 114 4z m937 -242 c43 -135 79
-253 79 -262 0 -15 -9 -18 -54 -18 l-55 0 -16 58 c-9 31 -18 63 -20 70 -4 9
-27 12 -87 10 l-82 -3 -20 -65 -21 -65 -49 -3 c-27 -2 -52 0 -57 5 -7 7 138
484 156 513 4 7 35 10 77 8 l71 -3 78 -245z"/>
<path d="M3785 2877 c-3 -6 -4 -174 -3 -372 l3 -360 368 -3 367 -2 0 375 0
375 -365 0 c-284 0 -367 -3 -370 -13z m437 -209 l3 -83 83 -3 83 -3 -3 -67 -3
-67 -82 -3 -83 -3 0 -80 0 -80 -67 3 -68 3 -3 77 -3 77 -77 3 -77 3 -3 68 -3
67 81 0 80 0 0 78 c0 43 3 82 7 85 3 4 35 7 69 7 l63 0 3 -82z"/>
<path d="M2588 1613 l-38 -4 0 -93 0 -93 38 -7 c48 -7 106 9 132 36 30 32 27
102 -5 133 -13 14 -33 25 -44 25 -11 0 -25 1 -33 3 -7 2 -30 2 -50 0z"/>
<path d="M3601 1564 c-6 -22 -19 -69 -30 -106 l-20 -68 63 0 63 0 -28 101
c-15 56 -30 104 -33 106 -3 3 -9 -12 -15 -33z"/>
<path d="M3690 825 l0 -75 38 0 c47 0 103 16 114 32 4 7 8 30 8 50 0 50 -27
68 -102 68 l-58 0 0 -75z"/>
<path d="M4170 725 l0 -175 40 0 c54 0 104 22 126 55 26 40 31 163 9 220 -20
55 -54 75 -125 75 l-50 0 0 -175z"/>
<path d="M2140 787 c-13 -45 -25 -88 -28 -94 -3 -10 11 -13 52 -13 31 0 56 3
56 8 -1 10 -49 174 -53 178 -2 2 -14 -33 -27 -79z"/>
<path d="M3239 777 l-26 -92 50 -3 c27 -2 52 -1 55 2 5 6 -33 150 -47 173 -3
7 -18 -29 -32 -80z"/>
</g>
</svg>
